<?xml version="1.0" standalone="no"?><!DOCTYPE svg PUBLIC "-//W3C//DTD SVG 1.1//EN" "http://www.w3.org/Graphics/SVG/1.1/DTD/svg11.dtd"><svg t="1556608155541" class="icon" style="" viewBox="0 0 1228 1024" version="1.1" xmlns="http://www.w3.org/2000/svg" p-id="10407" xmlns:xlink="http://www.w3.org/1999/xlink" width="57.5625" height="48"><defs><style type="text/css"></style></defs><path d="M1166.58176 0H70.00064C31.08864 0 0 23.47008 0 62.54592v703.488c0 31.29344 31.1296 62.54592 62.21824 62.54592h439.58272l-11.8784 125.09184H404.43904c-31.08864 0-54.43584 39.07584-54.43584 70.32832h521.09312c7.7824-23.42912-15.5648-70.32832-46.6944-70.32832h-85.52448l-11.8784-125.09184h439.62368c31.1296 0 62.21824-31.25248 62.21824-62.54592V62.54592C1228.8 23.47008 1197.6704 0 1166.58176 0z m-7.7824 648.8064H77.824V70.36928H1158.7584V648.8064zM373.30944 273.6128c18.30912 0 36.53632-7.61856 49.47968-20.64384 12.98432-13.02528 20.48-31.29344 20.48-49.72544 0-18.432-7.49568-36.74112-20.48-49.7664a70.656 70.656 0 0 0-49.47968-20.60288c-18.30912 0-36.53632 7.5776-49.47968 20.60288-12.98432 13.02528-20.52096 31.3344-20.52096 49.7664 0 18.432 7.53664 36.70016 20.48 49.72544 12.98432 13.02528 31.21152 20.60288 49.52064 20.60288z m575.488 93.7984H653.312v203.20256h295.56736V367.4112z m0-203.24352H653.312v23.42912h295.56736v-23.42912z m0 46.8992H653.312v23.42912h295.56736v-23.42912zM583.35232 367.4112H287.744v23.42912h295.56736V367.4112z m0 46.85824H287.744v23.47008h295.56736v-23.47008z m0 39.1168H287.744v23.42912h295.56736v-23.42912z m0 46.8992H287.744v23.42912h295.56736v-23.42912z m0 46.8992H287.744v23.42912h295.56736v-23.42912z" p-id="10408"></path></svg>